<svg width="19" height="19" viewBox="0 0 19 19" fill="none" xmlns="http://www.w3.org/2000/svg">
<path fill-rule="evenodd" clip-rule="evenodd" d="M18.9313 8.9877L18.9313 8.99238C18.9311 9.15004 18.9309 9.30784 18.9309 9.46581C18.9309 9.64422 18.9312 9.82241 18.9314 10.0004C18.9331 11.1267 18.9348 12.2464 18.8693 13.3731C18.7959 14.8887 18.4526 16.2313 17.342 17.342C16.2337 18.4502 14.8887 18.7959 13.3731 18.8693C12.2276 18.9338 11.0893 18.9325 9.94398 18.9313L9.9393 18.9313C9.78162 18.9311 9.6238 18.9309 9.46581 18.9309C9.30817 18.9309 9.15067 18.9311 8.99328 18.9313L8.98851 18.9313C7.84469 18.9325 6.70617 18.9338 5.55852 18.8693C4.04297 18.7959 2.70028 18.4526 1.58967 17.342C0.481419 16.2337 0.135683 14.8887 0.0622737 13.3731C-0.00217901 12.2275 -0.000915843 11.0874 0.000351914 9.94312C0.000528092 9.78411 0.000704359 9.62501 0.000704359 9.46581C0.000704359 9.30659 0.000528042 9.1475 0.00035184 8.98852C-0.000915891 7.8447 -0.00217775 6.70618 0.0622737 5.55852C0.135683 4.04297 0.479051 2.70028 1.58967 1.58967C2.69792 0.481419 4.04297 0.135683 5.55852 0.0622737C6.70406 -0.00217585 7.8423 -0.000915931 8.98765 0.00035174L8.98789 0.000352098C9.14705 0.00052817 9.30634 0.000704361 9.46581 0.000704361C9.62502 0.000704361 9.7841 0.000528051 9.94307 0.000351859H9.94308H9.9431C11.0869 -0.000915931 12.2254 -0.00217776 13.3731 0.0622737C14.8887 0.135683 16.2313 0.479051 17.342 1.58967C18.4502 2.69792 18.7959 4.04297 18.8693 5.55852C18.9338 6.70408 18.9325 7.84233 18.9313 8.9877ZM6.30676 9.46618C6.30676 7.72803 7.72523 6.30957 9.46338 6.30957C11.2015 6.30957 12.62 7.72803 12.62 9.46618C12.62 11.2043 11.2015 12.6228 9.46338 12.6228C7.72523 12.6228 6.30676 11.2043 6.30676 9.46618ZM9.46332 14.3222C6.77558 14.3222 4.60645 12.153 4.60645 9.46527C4.60645 6.77753 6.77558 4.6084 9.46332 4.6084C12.1511 4.6084 14.3202 6.77753 14.3202 9.46527C14.3202 12.153 12.1511 14.3222 9.46332 14.3222ZM13.3849 4.41066C13.3849 5.0382 13.8917 5.54496 14.5192 5.54496C14.8201 5.54534 15.1089 5.42595 15.3217 5.21315C15.5345 5.00035 15.6539 4.71161 15.6535 4.41066C15.6535 3.78313 15.1467 3.27637 14.5192 3.27637C13.8917 3.27637 13.3849 3.78313 13.3849 4.41066Z" fill="white"/>
</svg>
