<svg width="19" height="18" viewBox="0 0 19 18" fill="none" xmlns="http://www.w3.org/2000/svg">
<path fill-rule="evenodd" clip-rule="evenodd" d="M3.02116 4.04563C4.37825 4.04563 5.22297 3.14655 5.22297 2.023C5.19769 0.874122 4.3783 0 3.04691 0C1.71573 0 0.845215 0.874139 0.845215 2.023C0.845215 3.1466 1.68973 4.04563 2.99575 4.04563H3.02104H3.02116ZM4.96649 17.354V5.64551H1.07483V17.354H4.96649ZM11.0123 17.3535H7.12061L7.12069 17.3533C7.12069 17.3533 7.17176 6.74342 7.12069 5.64476H11.0124V7.30255C11.5296 6.50477 12.4553 5.37012 14.5196 5.37012C17.0801 5.37012 19.0001 7.04348 19.0001 10.6399V17.3534H15.1086V11.0896C15.1086 9.51565 14.5453 8.44194 13.137 8.44194C12.062 8.44194 11.4217 9.16608 11.1403 9.86524C11.0376 10.1154 11.0123 10.465 11.0123 10.8149V17.3535Z" fill="white"/>
</svg>
