<svg width="161px" height="31px" viewBox="0 0 161 31" version="1.1" xmlns="http://www.w3.org/2000/svg" xmlns:xlink="http://www.w3.org/1999/xlink"> <title id="title">Calebe_</title> <desc>Created with Sketch.</desc> <g id="Site-Calebe" stroke="none" stroke-width="1" fill="none" fill-rule="evenodd"> <g id="Home" transform="translate(-150.000000, -70.000000)" fill="#191919"> <g id="logo" transform="translate(150.000000, 70.000000)"> <path d="M14.4289406,6.66083916 C11.9758706,6.66083916 9.92937943,7.56992098 8.28940568,9.38811189 C6.64943194,11.2063028 5.82945736,13.4720144 5.82945736,16.1853147 C5.82945736,18.898615 6.64943194,21.1573336 8.28940568,22.9615385 C9.92937943,24.7657433 11.9758706,25.6678322 14.4289406,25.6678322 C15.7795072,25.6678322 17.0198049,25.3951076 18.1498708,24.8496503 C19.2799367,24.3041931 20.3962047,23.4440618 21.498708,22.2692308 L25.0542636,26.1293706 C23.5107589,27.7517564 21.8570286,28.9615345 20.0930233,29.7587413 C18.3290179,30.555948 16.4410092,30.9545455 14.4289406,30.9545455 C10.3221156,30.9545455 6.89062532,29.5489651 4.13436693,26.7377622 C1.37810853,23.9265594 0,20.409112 0,16.1853147 C0,11.9615173 1.37810853,8.43707706 4.13436693,5.61188811 C6.89062532,2.78669916 10.3221156,1.37412587 14.4289406,1.37412587 C16.3583214,1.37412587 18.1912058,1.75174448 19.9276486,2.50699301 C21.6640914,3.26224154 23.2351351,4.36712559 24.6408269,5.82167832 L21.1679587,9.68181818 C20.1757056,8.67482014 19.1214526,7.91958294 18.005168,7.41608392 C16.8888833,6.9125849 15.6968194,6.66083916 14.4289406,6.66083916 Z M47.379845,30.534965 L42.5426357,30.534965 L41.9224806,27.9335664 C41.233416,28.9125923 40.3927698,29.6608366 39.4005168,30.1783217 C38.4082638,30.6958068 37.3471202,30.9545455 36.2170543,30.9545455 C33.6812965,30.9545455 31.5658999,29.9965131 29.870801,28.0804196 C28.1757021,26.1643261 27.3281654,23.7797345 27.3281654,20.9265734 C27.3281654,18.0454401 28.1757021,15.6468627 29.870801,13.7307692 C31.5658999,11.8146757 33.6812965,10.8566434 36.2170543,10.8566434 C37.3746828,10.8566434 38.4427169,11.115382 39.4211886,11.6328671 C40.3996604,12.1503522 41.233416,12.8985965 41.9224806,13.8776224 L42.5426357,11.2762238 L47.379845,11.2762238 L47.379845,30.534965 Z M32.7028424,20.9265734 C32.7028424,22.3811262 33.1507276,23.5909043 34.0465116,24.5559441 C34.9422956,25.5209838 36.0654541,26.0034965 37.4160207,26.0034965 C38.7665873,26.0034965 39.8897457,25.5209838 40.7855297,24.5559441 C41.6813137,23.5909043 42.129199,22.3811262 42.129199,20.9265734 C42.129199,19.4440485 41.6813137,18.2202845 40.7855297,17.2552448 C39.8897457,16.290205 38.7665873,15.8076923 37.4160207,15.8076923 C36.0654541,15.8076923 34.9422956,16.290205 34.0465116,17.2552448 C33.1507276,18.2202845 32.7028424,19.4440485 32.7028424,20.9265734 Z M52.8372093,0.954545455 L58.3359173,0.954545455 L58.3359173,30.534965 L52.8372093,30.534965 L52.8372093,0.954545455 Z M77.5607235,24.3671329 L80.248062,27.8916084 C79.255809,28.8986064 78.1050884,29.6608366 76.7958656,30.1783217 C75.4866429,30.6958068 74.0740817,30.9545455 72.5581395,30.9545455 C69.6640682,30.9545455 67.2592688,30.003506 65.3436693,28.1013986 C63.4280697,26.1992912 62.4702842,23.8077067 62.4702842,20.9265734 C62.4702842,18.0734123 63.393617,15.6818278 65.2403101,13.7517483 C67.0870032,11.8216687 69.3884444,10.8566434 72.1447028,10.8566434 C74.9009612,10.8566434 77.2024025,11.8216687 79.0490956,13.7517483 C80.8957887,15.6818278 81.8191214,18.0734123 81.8191214,20.9265734 C81.8191214,21.3181838 81.8053404,21.6818165 81.7777778,22.0174825 C81.7502152,22.3531485 81.722653,22.6048943 81.6950904,22.7727273 L67.5968992,22.7727273 C67.9276502,23.9195862 68.534018,24.828668 69.4160207,25.5 C70.2980234,26.171332 71.3453858,26.506993 72.5581395,26.506993 C73.52283,26.506993 74.3979289,26.3391625 75.1834625,26.0034965 C75.9689962,25.6678305 76.7614086,25.1223814 77.5607235,24.3671329 Z M72.1447028,15.3041958 C71.0973247,15.3041958 70.1739919,15.618878 69.374677,16.2482517 C68.5753621,16.8776255 68.0103376,17.7377568 67.6795866,18.8286713 L76.6098191,18.8286713 C76.2790681,17.7377568 75.7209342,16.8776255 74.9354005,16.2482517 C74.1498669,15.618878 73.2196436,15.3041958 72.1447028,15.3041958 Z M96.9509044,10.8566434 C99.4866621,10.8566434 101.602059,11.8146757 103.297158,13.7307692 C104.992257,15.6468627 105.839793,18.0454401 105.839793,20.9265734 C105.839793,23.7797345 104.992257,26.1643261 103.297158,28.0804196 C101.602059,29.9965131 99.4866621,30.9545455 96.9509044,30.9545455 C95.8208384,30.9545455 94.7596949,30.6958068 93.7674419,30.1783217 C92.7751888,29.6608366 91.9345426,28.9125923 91.245478,27.9335664 L90.625323,30.534965 L85.7881137,30.534965 L85.7881137,0.954545455 L91.2868217,0.954545455 L91.2868217,13.8356643 C91.9758863,12.8566385 92.8027514,12.1153871 93.7674419,11.6118881 C94.7321323,11.1083891 95.7932759,10.8566434 96.9509044,10.8566434 Z M95.751938,15.8076923 C94.4013714,15.8076923 93.2782129,16.290205 92.3824289,17.2552448 C91.486645,18.2202845 91.0387597,19.4440485 91.0387597,20.9265734 C91.0387597,22.3811262 91.486645,23.5909043 92.3824289,24.5559441 C93.2782129,25.5209838 94.4013714,26.0034965 95.751938,26.0034965 C97.1025046,26.0034965 98.225663,25.5209838 99.121447,24.5559441 C100.017231,23.5909043 100.465116,22.3811262 100.465116,20.9265734 C100.465116,19.4440485 100.017231,18.2202845 99.121447,17.2552448 C98.225663,16.290205 97.1025046,15.8076923 95.751938,15.8076923 Z M123.741602,24.3671329 L126.428941,27.8916084 C125.436688,28.8986064 124.285967,29.6608366 122.976744,30.1783217 C121.667521,30.6958068 120.25496,30.9545455 118.739018,30.9545455 C115.844947,30.9545455 113.440147,30.003506 111.524548,28.1013986 C109.608948,26.1992912 108.651163,23.8077067 108.651163,20.9265734 C108.651163,18.0734123 109.574496,15.6818278 111.421189,13.7517483 C113.267882,11.8216687 115.569323,10.8566434 118.325581,10.8566434 C121.08184,10.8566434 123.383281,11.8216687 125.229974,13.7517483 C127.076667,15.6818278 128,18.0734123 128,20.9265734 C128,21.3181838 127.986219,21.6818165 127.958656,22.0174825 C127.931094,22.3531485 127.903532,22.6048943 127.875969,22.7727273 L113.777778,22.7727273 C114.108529,23.9195862 114.714897,24.828668 115.596899,25.5 C116.478902,26.171332 117.526264,26.506993 118.739018,26.506993 C119.703709,26.506993 120.578807,26.3391625 121.364341,26.0034965 C122.149875,25.6678305 122.942287,25.1223814 123.741602,24.3671329 Z M118.325581,15.3041958 C117.278203,15.3041958 116.35487,15.618878 115.555556,16.2482517 C114.756241,16.8776255 114.191216,17.7377568 113.860465,18.8286713 L122.790698,18.8286713 C122.459947,17.7377568 121.901813,16.8776255 121.116279,16.2482517 C120.330745,15.618878 119.400522,15.3041958 118.325581,15.3041958 Z" id="Calebe-Copy-4"></path> <polygon id="Rectangle-Copy-2" fill-rule="nonzero" transform="translate(146.000000, 27.454545) rotate(-270.000000) translate(-146.000000, -27.454545) " points="143 12.9545455 149 12.9545455 149 41.9545455 143 41.9545455"></polygon> </g> </g> </g></svg>